<?xml version="1.0" encoding="utf-8"?>
<!-- Generator: Adobe Illustrator 22.1.0, SVG Export Plug-In . SVG Version: 6.00 Build 0)  -->
<svg version="1.1" id="Layer_1" xmlns="http://www.w3.org/2000/svg" xmlns:xlink="http://www.w3.org/1999/xlink" x="0px" y="0px"
	 viewBox="0 0 196.2 216.3" style="enable-background:new 0 0 196.2 216.3;" xml:space="preserve">
<style type="text/css">
	.st0{fill:url(#SVGID_1_);}
</style>
<title>Ripple_logo_RGB</title>
<linearGradient id="SVGID_1_" gradientUnits="userSpaceOnUse" x1="83.6756" y1="168.8521" x2="231.1769" y2="21.351" gradientTransform="matrix(1 0 0 -1 -28.3468 203.3686)">
	<stop  offset="0" style="stop-color:#00AAE4"/>
	<stop  offset="1" style="stop-color:#006097"/>
</linearGradient>
<path class="st0" d="M174,131.7c-7.5-4.3-16-5.6-24.4-5.9c-7-0.2-17.5-4.8-17.5-17.6c0-9.5,7.7-17.2,17.6-17.6
	c8.4-0.3,16.9-1.6,24.4-5.9c21.3-12.3,28.5-39.5,16.3-60.7C178,2.8,150.8-4.5,129.5,7.8c-13.8,7.9-22.2,22.6-22.2,38.5
	c0,8.6,3.1,16.5,7,23.9c3.3,6.2,4.9,17.7-6.3,24.2c-8.4,4.8-18.9,1.8-24.1-6.6c-4.4-7.1-9.7-13.7-17.2-18C45.4,57.5,18.2,64.8,6,86
	s-5,48.4,16.3,60.7c13.8,7.9,30.7,7.9,44.4,0c7.5-4.3,12.8-10.9,17.2-18c3.6-5.8,12.7-13.2,24.1-6.6c8.4,4.8,11,15.4,6.3,24.2
	c-3.9,7.3-7,15.3-7,23.9c0,24.5,19.9,44.4,44.4,44.4s44.4-19.9,44.4-44.4C196.2,154.3,187.7,139.7,174,131.7z"/>
</svg>
