<?xml version="1.0" encoding="utf-8"?>
<!-- Generator: Adobe Illustrator 22.1.0, SVG Export Plug-In . SVG Version: 6.00 Build 0)  -->
<svg version="1.1" id="Layer_1" xmlns="http://www.w3.org/2000/svg" xmlns:xlink="http://www.w3.org/1999/xlink" x="0px" y="0px"
	 viewBox="0 0 66.8 70" style="enable-background:new 0 0 66.8 70;" xml:space="preserve">
<style type="text/css">
	.st0{fill:#D61719;}
</style>
<path class="st0" d="M13.3,35.5C6,17.1,0.3,1.7,0.6,1.3C1,1,12.9,2.8,27,5.3L52.8,10l6.7,6.7l6.6,6.8L47.5,46.2
	C37.2,58.7,28.3,68.9,27.7,68.9C27.1,69,20.7,53.9,13.3,35.5z M28.9,42.2c0.9-7.3,1.5-13.4,1.3-13.6c-0.2-0.1-4.2-3.4-8.9-7.2
	C8,10.5,8.9,11,10.5,15c0.8,1.9,4.8,11.9,8.9,22.2c4.1,10.2,7.5,18.5,7.6,18.4C27.1,55.5,28,49.5,28.9,42.2z M44.6,41.5
	C51,33.8,56,27.4,55.9,27.2c-0.3-0.3-19.8,3-20.4,3.4c-0.5,0.3-3.1,20.1-3.2,23.3c0,1.3,0.2,2.2,0.4,2S38.3,49.2,44.6,41.5z
	 M50.6,23l6.9-1.3l-3-3c-3.4-3.4-3.7-3.3-11.2,3.3c-2.6,2.3-3,3-1.5,2.6C42.9,24.4,46.9,23.6,50.6,23z M39.4,18.8
	c3.4-2.9,5.8-5.3,5.3-5.5C41.4,12.5,14.9,8,14.3,8.2c-0.8,0.3,16.9,15.6,18.2,15.7C32.8,24,35.9,21.7,39.4,18.8z"/>
</svg>
