<svg xmlns="http://www.w3.org/2000/svg" xmlns:xlink="http://www.w3.org/1999/xlink" viewBox="0 0 1620 1800"><defs><style>.cls-1{fill:none;}.cls-2{isolation:isolate;}.cls-3{fill:url(#linear-gradient);}.cls-4{clip-path:url(#clip-path);}.cls-17,.cls-19,.cls-22,.cls-42,.cls-5{opacity:0.5;}.cls-6{fill:#998c8f;}.cls-23,.cls-34,.cls-38,.cls-39,.cls-41,.cls-44,.cls-45,.cls-46,.cls-6{opacity:0.8;}.cls-10,.cls-12,.cls-15,.cls-18,.cls-19,.cls-21,.cls-22,.cls-23,.cls-24,.cls-25,.cls-26,.cls-27,.cls-28,.cls-29,.cls-32,.cls-33,.cls-34,.cls-35,.cls-36,.cls-38,.cls-40,.cls-41,.cls-42,.cls-44,.cls-45,.cls-46,.cls-6,.cls-9{mix-blend-mode:multiply;}.cls-11,.cls-16,.cls-31,.cls-7,.cls-8{mix-blend-mode:color-burn;}.cls-7{fill:url(#linear-gradient-2);}.cls-8{fill:url(#linear-gradient-3);}.cls-9{fill:url(#linear-gradient-4);}.cls-10{fill:url(#linear-gradient-5);}.cls-11{fill:url(#linear-gradient-6);}.cls-12{fill:url(#linear-gradient-7);}.cls-13,.cls-39{mix-blend-mode:darken;}.cls-13{fill:url(#linear-gradient-8);}.cls-14{fill:#ffe075;}.cls-15{fill:url(#linear-gradient-9);}.cls-16{fill:url(#linear-gradient-10);}.cls-17{fill:#b29364;mix-blend-mode:color-dodge;}.cls-18,.cls-20,.cls-25,.cls-26,.cls-27{opacity:0.3;}.cls-18{fill:url(#linear-gradient-11);}.cls-19{fill:url(#linear-gradient-12);}.cls-20,.cls-22,.cls-29{fill:#553a2b;}.cls-20{mix-blend-mode:hard-light;}.cls-21,.cls-29,.cls-40{opacity:0.6;}.cls-21{fill:url(#linear-gradient-13);}.cls-23{fill:#e1ab81;}.cls-24{fill:#cd732d;opacity:0.2;}.cls-25{fill:url(#linear-gradient-14);}.cls-26{fill:url(#linear-gradient-15);}.cls-27{fill:url(#linear-gradient-16);}.cls-28{fill:url(#linear-gradient-17);}.cls-30,.cls-37,.cls-43{opacity:0.1;}.cls-30{fill:url(#linear-gradient-18);}.cls-31{fill:url(#linear-gradient-19);}.cls-32{fill:url(#linear-gradient-20);}.cls-33{fill:url(#linear-gradient-21);}.cls-34{fill:url(#linear-gradient-22);}.cls-35{opacity:0.4;fill:url(#linear-gradient-23);}.cls-36{fill:url(#linear-gradient-24);}.cls-37{fill:url(#linear-gradient-25);}.cls-38{fill:url(#linear-gradient-26);}.cls-39{fill:url(#linear-gradient-27);}.cls-40{fill:url(#linear-gradient-28);}.cls-41{fill:url(#linear-gradient-29);}.cls-42{fill:url(#linear-gradient-30);}.cls-43{fill:url(#linear-gradient-31);}.cls-44{fill:url(#linear-gradient-32);}.cls-45{fill:url(#linear-gradient-33);}.cls-46{fill:url(#linear-gradient-34);}</style><linearGradient id="linear-gradient" x1="303.75" y1="793.5" x2="1503.75" y2="793.5" gradientUnits="userSpaceOnUse"><stop offset="0" stop-color="#23120e"/><stop offset="0.08" stop-color="#341f18"/><stop offset="0.22" stop-color="#4c3326"/><stop offset="0.3" stop-color="#553a2b"/><stop offset="0.65" stop-color="#b29364"/><stop offset="1" stop-color="#23120e"/></linearGradient><clipPath id="clip-path" transform="translate(303.75 193.5)"><rect class="cls-1" width="1200" height="1200"/></clipPath><linearGradient id="linear-gradient-2" x1="1215" y1="792" x2="1215" y2="1656" gradientUnits="userSpaceOnUse"><stop offset="0" stop-color="#ffe075"/><stop offset="0.09" stop-color="#ffe897"/><stop offset="0.19" stop-color="#ffefb7"/><stop offset="0.3" stop-color="#fff5d2"/><stop offset="0.42" stop-color="#fff9e6"/><stop offset="0.56" stop-color="#fffdf4"/><stop offset="0.72" stop-color="#fffefc"/><stop offset="1" stop-color="#fff"/></linearGradient><linearGradient id="linear-gradient-3" x1="749.02" y1="1080.67" x2="60.98" y2="503.33" gradientUnits="userSpaceOnUse"><stop offset="0" stop-color="#fff"/><stop offset="1" stop-color="#dc9d6c"/></linearGradient><linearGradient id="linear-gradient-4" x1="1019.02" y1="936.67" x2="330.98" y2="359.33" gradientUnits="userSpaceOnUse"><stop offset="0" stop-color="#fff"/><stop offset="1" stop-color="#b29364"/></linearGradient><linearGradient id="linear-gradient-5" x1="1072.28" y1="1597.37" x2="277.72" y2="1138.63" gradientUnits="userSpaceOnUse"><stop offset="0" stop-color="#fff"/><stop offset="0.24" stop-color="#fdfdfc"/><stop offset="0.38" stop-color="#f6f5f4"/><stop offset="0.5" stop-color="#ebe8e6"/><stop offset="0.61" stop-color="#dad5d1"/><stop offset="0.71" stop-color="#c5bcb7"/><stop offset="0.8" stop-color="#ab9e97"/><stop offset="0.88" stop-color="#8d7a70"/><stop offset="0.96" stop-color="#6a5245"/><stop offset="1" stop-color="#553a2b"/></linearGradient><linearGradient id="linear-gradient-6" x1="540" y1="648" x2="1350" y2="648" gradientUnits="userSpaceOnUse"><stop offset="0" stop-color="#aa9c95"/><stop offset="0.24" stop-color="#c5bbb6"/><stop offset="0.57" stop-color="#e4e0de"/><stop offset="0.84" stop-color="#f8f7f6"/><stop offset="1" stop-color="#fff"/></linearGradient><linearGradient id="linear-gradient-7" x1="1390.5" y1="1030.5" x2="769.5" y2="409.5" gradientUnits="userSpaceOnUse"><stop offset="0" stop-color="#fff"/><stop offset="0.1" stop-color="#f8f7f6"/><stop offset="0.26" stop-color="#e4e0de"/><stop offset="0.46" stop-color="#c4bbb6"/><stop offset="0.69" stop-color="#98887f"/><stop offset="0.95" stop-color="#604739"/><stop offset="1" stop-color="#553a2b"/></linearGradient><linearGradient id="linear-gradient-8" x1="293.9" y1="1327.41" x2="553.6" y2="877.59" gradientTransform="matrix(-1, 0, 0, 1, 1503.75, 193.5)" gradientUnits="userSpaceOnUse"><stop offset="0" stop-color="#553a2b"/><stop offset="0.05" stop-color="#604739"/><stop offset="0.31" stop-color="#98887f"/><stop offset="0.54" stop-color="#c4bbb6"/><stop offset="0.74" stop-color="#e4e0de"/><stop offset="0.9" stop-color="#f8f7f6"/><stop offset="1" stop-color="#fff"/></linearGradient><linearGradient id="linear-gradient-9" x1="1557" y1="1071" x2="1143" y2="657" gradientUnits="userSpaceOnUse"><stop offset="0.2" stop-color="#d6d1d2"/><stop offset="0.29" stop-color="#cfc9c9"/><stop offset="0.44" stop-color="#bcb3b1"/><stop offset="0.63" stop-color="#9e8f89"/><stop offset="0.86" stop-color="#735e52"/><stop offset="1" stop-color="#553a2b"/></linearGradient><linearGradient id="linear-gradient-10" x1="1215" y1="1368" x2="1215" y2="792" gradientUnits="userSpaceOnUse"><stop offset="0" stop-color="#715e62"/><stop offset="0.14" stop-color="#8f7f83"/><stop offset="0.4" stop-color="#bfb6b8"/><stop offset="0.62" stop-color="#e2dedf"/><stop offset="0.79" stop-color="#f7f6f6"/><stop offset="0.9" stop-color="#fff"/></linearGradient><linearGradient id="linear-gradient-11" x1="675" y1="1080" x2="675" y2="792" gradientUnits="userSpaceOnUse"><stop offset="0" stop-color="#23120e"/><stop offset="0.08" stop-color="#453734"/><stop offset="0.22" stop-color="#766c69"/><stop offset="0.35" stop-color="#a09997"/><stop offset="0.48" stop-color="#c2bebd"/><stop offset="0.62" stop-color="#dddada"/><stop offset="0.75" stop-color="#f0efee"/><stop offset="0.88" stop-color="#fbfbfb"/><stop offset="1" stop-color="#fff"/></linearGradient><linearGradient id="linear-gradient-12" x1="1111.5" y1="607.5" x2="1318.5" y2="400.5" gradientUnits="userSpaceOnUse"><stop offset="0" stop-color="#cd732d"/><stop offset="0.04" stop-color="#d07b39"/><stop offset="0.27" stop-color="#e0a97f"/><stop offset="0.49" stop-color="#eeceb6"/><stop offset="0.67" stop-color="#f7e9de"/><stop offset="0.81" stop-color="#fdf9f6"/><stop offset="0.9" stop-color="#fff"/></linearGradient><linearGradient id="linear-gradient-13" x1="945" y1="720" x2="675" y2="720" gradientUnits="userSpaceOnUse"><stop offset="0" stop-color="#cd732d"/><stop offset="0.04" stop-color="#d38345"/><stop offset="0.12" stop-color="#dda070"/><stop offset="0.2" stop-color="#e6ba97"/><stop offset="0.29" stop-color="#eecfb7"/><stop offset="0.39" stop-color="#f4e1d1"/><stop offset="0.49" stop-color="#f9eee6"/><stop offset="0.61" stop-color="#fcf8f4"/><stop offset="0.76" stop-color="#fefdfc"/><stop offset="1" stop-color="#fff"/></linearGradient><linearGradient id="linear-gradient-14" x1="1350" y1="576" x2="1350" y2="288" gradientUnits="userSpaceOnUse"><stop offset="0" stop-color="#553a2b"/><stop offset="0.04" stop-color="#604739"/><stop offset="0.28" stop-color="#98887f"/><stop offset="0.49" stop-color="#c4bbb6"/><stop offset="0.67" stop-color="#e4e0de"/><stop offset="0.81" stop-color="#f8f7f6"/><stop offset="0.9" stop-color="#fff"/></linearGradient><linearGradient id="linear-gradient-15" x1="810" y1="1296" x2="810" y2="1008" gradientUnits="userSpaceOnUse"><stop offset="0.1" stop-color="#fff"/><stop offset="0.18" stop-color="#f7f6f6"/><stop offset="0.31" stop-color="#e1dede"/><stop offset="0.47" stop-color="#bcb7b6"/><stop offset="0.67" stop-color="#8a817f"/><stop offset="0.88" stop-color="#4a3c39"/><stop offset="1" stop-color="#23120e"/></linearGradient><linearGradient id="linear-gradient-16" x1="571.5" y1="1327.5" x2="778.5" y2="1120.5" xlink:href="#linear-gradient-11"/><linearGradient id="linear-gradient-17" x1="1080" y1="1440" x2="1080" y2="1152" gradientUnits="userSpaceOnUse"><stop offset="0" stop-color="#553a2b"/><stop offset="0.02" stop-color="#5c4234"/><stop offset="0.16" stop-color="#877469"/><stop offset="0.31" stop-color="#ac9e97"/><stop offset="0.45" stop-color="#cac1bd"/><stop offset="0.59" stop-color="#e1dcda"/><stop offset="0.73" stop-color="#f2f0ee"/><stop offset="0.87" stop-color="#fcfbfb"/><stop offset="1" stop-color="#fff"/></linearGradient><linearGradient id="linear-gradient-18" x1="1215" y1="1224" x2="1215" y2="936" gradientUnits="userSpaceOnUse"><stop offset="0" stop-color="#fff"/><stop offset="0.17" stop-color="#fffefb"/><stop offset="0.34" stop-color="#fffbee"/><stop offset="0.51" stop-color="#fff7da"/><stop offset="0.69" stop-color="#fff0bd"/><stop offset="0.86" stop-color="#ffe898"/><stop offset="1" stop-color="#ffe075"/></linearGradient><linearGradient id="linear-gradient-19" x1="1035.75" y1="1381.5" x2="621.75" y2="967.5" gradientTransform="matrix(-1, 0, 0, 1, 1503.75, 193.5)" gradientUnits="userSpaceOnUse"><stop offset="0" stop-color="#aea3a5"/><stop offset="0.08" stop-color="#c0b8b9"/><stop offset="0.2" stop-color="#d7d2d3"/><stop offset="0.34" stop-color="#e9e6e6"/><stop offset="0.5" stop-color="#f5f4f4"/><stop offset="0.69" stop-color="#fdfcfd"/><stop offset="1" stop-color="#fff"/></linearGradient><linearGradient id="linear-gradient-20" x1="540" y1="1152" x2="540" y2="576" gradientUnits="userSpaceOnUse"><stop offset="0" stop-color="#b29364"/><stop offset="0.02" stop-color="#b5976a"/><stop offset="0.19" stop-color="#cbb797"/><stop offset="0.35" stop-color="#ded1bd"/><stop offset="0.52" stop-color="#ece5da"/><stop offset="0.68" stop-color="#f7f3ee"/><stop offset="0.84" stop-color="#fdfcfb"/><stop offset="1" stop-color="#fff"/></linearGradient><linearGradient id="linear-gradient-21" x1="1557" y1="783" x2="1143" y2="369" xlink:href="#linear-gradient-20"/><linearGradient id="linear-gradient-22" x1="945" y1="1368" x2="945" y2="1080" xlink:href="#linear-gradient-5"/><linearGradient id="linear-gradient-23" x1="976.5" y1="535.5" x2="1183.5" y2="328.5" gradientUnits="userSpaceOnUse"><stop offset="0" stop-color="#b29364"/><stop offset="0.09" stop-color="#c0a67f"/><stop offset="0.3" stop-color="#dbccb6"/><stop offset="0.47" stop-color="#eee8de"/><stop offset="0.61" stop-color="#fbf9f6"/><stop offset="0.7" stop-color="#fff"/></linearGradient><linearGradient id="linear-gradient-24" x1="388.75" y1="-380.5" x2="388.75" y2="-668.5" gradientTransform="translate(1738.75 -380.5) rotate(180)" xlink:href="#linear-gradient-17"/><linearGradient id="linear-gradient-25" x1="523.75" y1="-596.5" x2="523.75" y2="-884.5" gradientTransform="translate(1738.75 -380.5) rotate(180)" xlink:href="#linear-gradient-18"/><linearGradient id="linear-gradient-26" x1="150.25" y1="-493" x2="357.25" y2="-700" gradientTransform="translate(1738.75 -380.5) rotate(180)" xlink:href="#linear-gradient-5"/><linearGradient id="linear-gradient-27" x1="571.5" y1="1183.5" x2="778.5" y2="976.5" gradientUnits="userSpaceOnUse"><stop offset="0" stop-color="#fff"/><stop offset="0.13" stop-color="#fcfbfb"/><stop offset="0.27" stop-color="#f2f0ee"/><stop offset="0.41" stop-color="#e1dcda"/><stop offset="0.55" stop-color="#cac1bd"/><stop offset="0.69" stop-color="#ac9e97"/><stop offset="0.84" stop-color="#877469"/><stop offset="0.98" stop-color="#5c4234"/><stop offset="1" stop-color="#553a2b"/></linearGradient><linearGradient id="linear-gradient-28" x1="270" y1="792" x2="540" y2="792" xlink:href="#linear-gradient-27"/><linearGradient id="linear-gradient-29" x1="1009.93" y1="1192.46" x2="880.07" y2="967.54" gradientUnits="userSpaceOnUse"><stop offset="0" stop-color="#fff"/><stop offset="0.3" stop-color="#fefdfc"/><stop offset="0.48" stop-color="#fcf8f4"/><stop offset="0.63" stop-color="#f9eee6"/><stop offset="0.76" stop-color="#f4e1d2"/><stop offset="0.88" stop-color="#eecfb8"/><stop offset="0.99" stop-color="#e6ba98"/><stop offset="1" stop-color="#e6b996"/></linearGradient><linearGradient id="linear-gradient-30" x1="685.58" y1="1383.12" x2="934.42" y2="1208.88" xlink:href="#linear-gradient-5"/><linearGradient id="linear-gradient-31" x1="810" y1="720" x2="810" y2="432" gradientUnits="userSpaceOnUse"><stop offset="0" stop-color="#fff"/><stop offset="0.12" stop-color="#fbfbfb"/><stop offset="0.25" stop-color="#f0efee"/><stop offset="0.38" stop-color="#dddada"/><stop offset="0.52" stop-color="#c2bebd"/><stop offset="0.65" stop-color="#a09997"/><stop offset="0.78" stop-color="#766c69"/><stop offset="0.92" stop-color="#453734"/><stop offset="1" stop-color="#23120e"/></linearGradient><linearGradient id="linear-gradient-32" x1="706.5" y1="967.5" x2="913.5" y2="760.5" xlink:href="#linear-gradient-29"/><linearGradient id="linear-gradient-33" x1="540" y1="432" x2="1080" y2="432" gradientUnits="userSpaceOnUse"><stop offset="0.3" stop-color="#fff"/><stop offset="0.37" stop-color="#fdf9f6"/><stop offset="0.48" stop-color="#f7e9de"/><stop offset="0.62" stop-color="#eeceb6"/><stop offset="0.79" stop-color="#e0a97f"/><stop offset="0.97" stop-color="#d07b39"/><stop offset="1" stop-color="#cd732d"/></linearGradient><linearGradient id="linear-gradient-34" x1="604.93" y1="544.46" x2="475.07" y2="319.54" gradientUnits="userSpaceOnUse"><stop offset="0" stop-color="#aa9c95"/><stop offset="0.01" stop-color="#ac9f98"/><stop offset="0.12" stop-color="#c6bcb8"/><stop offset="0.24" stop-color="#dbd5d2"/><stop offset="0.37" stop-color="#ebe7e6"/><stop offset="0.52" stop-color="#f6f5f4"/><stop offset="0.7" stop-color="#fdfdfc"/><stop offset="1" stop-color="#fff"/></linearGradient></defs><title>bg</title><g class="cls-2"><g id="bg"><rect class="cls-3" x="303.75" y="193.5" width="1200" height="1200"/></g><g id="object"><g class="cls-4"><g class="cls-5"><polygon class="cls-6" points="1215 792 810 576 405 792 405 1224 810 1440 1215 1224 1215 792"/><polygon class="cls-7" points="1620 1008 1215 792 810 1008 810 1440 1215 1656 1620 1440 1620 1008"/><polygon class="cls-8" points="810 576 405 360 0 576 0 1008 405 1224 810 1008 810 576"/><polygon class="cls-9" points="1080 432 675 216 270 432 270 864 675 1080 1080 864 1080 432"/><polygon class="cls-10" points="1080 1152 675 936 270 1152 270 1584 675 1800 1080 1584 1080 1152"/><polygon class="cls-11" points="1350 432 945 216 540 432 540 864 945 1080 1350 864 1350 432"/></g><polygon class="cls-12" points="1485 504 1080 288 675 504 675 936 1080 1152 1485 936 1485 504"/><polygon class="cls-13" points="1350 1152 1080 1008 810 1152 810 1440 1080 1584 1350 1440 1350 1152"/><polygon class="cls-14" points="1350 576 1080 432 810 576 810 864 1080 1008 1350 864 1350 576"/><polygon class="cls-15" points="1620 720 1350 576 1080 720 1080 1008 1350 1152 1620 1008 1620 720"/><polygon class="cls-16" points="1485 936 1215 792 945 936 945 1224 1215 1368 1485 1224 1485 936"/><polygon class="cls-17" points="1215 648 1080 576 945 648 945 792 1080 864 1215 792 1215 648"/><polygon class="cls-18" points="810 864 675 792 540 864 540 1008 675 1080 810 1008 810 864"/><polygon class="cls-19" points="1350 432 1215 360 1080 432 1080 576 1215 648 1350 576 1350 432"/><polygon class="cls-20" points="1485 504 1350 432 1215 504 1215 648 1350 720 1485 648 1485 504"/><polygon class="cls-21" points="945 648 810 576 675 648 675 792 810 864 945 792 945 648"/><polygon class="cls-22" points="1350 864 1215 792 1080 864 1080 1008 1215 1080 1350 1008 1350 864"/><polygon class="cls-23" points="1215 936 1080 864 945 936 945 1080 1080 1152 1215 1080 1215 936"/><polygon class="cls-24" points="1620 720 1485 648 1350 720 1350 864 1485 936 1620 864 1620 720"/><polygon class="cls-25" points="1485 360 1350 288 1215 360 1215 504 1350 576 1485 504 1485 360"/><polygon class="cls-26" points="945 1080 810 1008 675 1080 675 1224 810 1296 945 1224 945 1080"/><polygon class="cls-27" points="810 1152 675 1080 540 1152 540 1296 675 1368 810 1296 810 1152"/><polygon class="cls-28" points="1215 1224 1080 1152 945 1224 945 1368 1080 1440 1215 1368 1215 1224"/><polygon class="cls-29" points="1080 1440 945 1368 810 1440 810 1584 945 1656 1080 1584 1080 1440"/><polygon class="cls-30" points="1350 1008 1215 936 1080 1008 1080 1152 1215 1224 1350 1152 1350 1008"/><polygon class="cls-31" points="945 1224 675 1080 405 1224 405 1512 675 1656 945 1512 945 1224"/><polygon class="cls-32" points="810 720 540 576 270 720 270 1008 540 1152 810 1008 810 720"/><polygon class="cls-33" points="1620 432 1350 288 1080 432 1080 720 1350 864 1620 720 1620 432"/><polygon class="cls-34" points="1080 1152 945 1080 810 1152 810 1296 945 1368 1080 1296 1080 1152"/><polygon class="cls-35" points="945 504 1080 576 1215 504 1215 360 1080 288 945 360 945 504"/><polygon class="cls-36" points="1215 216 1350 288 1485 216 1485 72 1350 0 1215 72 1215 216"/><polygon class="cls-37" points="1080 432 1215 504 1350 432 1350 288 1215 216 1080 288 1080 432"/><polygon class="cls-38" points="1350 288 1485 360 1620 288 1620 144 1485 72 1350 144 1350 288"/><polygon class="cls-39" points="810 1008 675 936 540 1008 540 1152 675 1224 810 1152 810 1008"/><polygon class="cls-40" points="540 720 405 648 270 720 270 864 405 936 540 864 540 720"/><polygon class="cls-41" points="1080 1008 945 936 810 1008 810 1152 945 1224 1080 1152 1080 1008"/><polygon class="cls-42" points="945 1224 810 1152 675 1224 675 1368 810 1440 945 1368 945 1224"/><polygon class="cls-43" points="945 504 810 432 675 504 675 648 810 720 945 648 945 504"/><polygon class="cls-44" points="945 792 810 720 675 792 675 936 810 1008 945 936 945 792"/><polygon class="cls-45" points="1080 288 810 144 540 288 540 576 810 720 1080 576 1080 288"/><polygon class="cls-46" points="675 360 540 288 405 360 405 504 540 576 675 504 675 360"/></g></g></g></svg>