<svg id="Í_ã_1" data-name="Í¼²ã_1" xmlns="http://www.w3.org/2000/svg" xmlns:xlink="http://www.w3.org/1999/xlink" viewBox="0 0 647.13 636.09"><defs><style>.cls-1{clip-path:url(#clip-path);}.cls-2{fill:#2e1e55;}.cls-3{opacity:0.8;}.cls-4{opacity:0.7;}.cls-5{opacity:0.6;}.cls-6{opacity:0.5;}.cls-7{opacity:0.4;}.cls-8{opacity:0.3;}.cls-9{isolation:isolate;}</style><clipPath id="clip-path" transform="translate(83.75 -172.1)"/></defs><title>cubes</title><g class="cls-1"><path class="cls-2" d="M125.66,589.69H-2.59V461.44H125.66V589.69ZM.79,586.32h121.5V464.82H.79v121.5Z" transform="translate(83.75 -172.1)"/><g class="cls-3"><path class="cls-2" d="M272.83,497.91l-85.59,76.32-76.31-85.58,85.58-76.32,76.32,85.58ZM187.49,570l81.08-72.3-72.31-81.08-81.08,72.3L187.49,570Z" transform="translate(83.75 -172.1)"/></g><g class="cls-4"><path class="cls-2" d="M301.07,583.94,211.45,550.8l33.14-89.61,89.61,33.13-33.13,89.62Zm-86.39-34.62,84.9,31.39,31.4-84.9-84.91-31.4-31.39,84.91Z" transform="translate(83.75 -172.1)"/></g><g class="cls-5"><path class="cls-2" d="M312.45,551.14,300,473.38l77.76-12.47,12.47,77.76-77.77,12.47Zm-10.09-76.05,11.81,73.67L387.84,537,376,463.28l-73.67,11.81Z" transform="translate(83.75 -172.1)"/></g><g class="cls-6"><path class="cls-2" d="M368.59,471l28.94-64.45L462,435.47,433,499.93,368.59,471Zm29.87-62-27.41,61.06,61.06,27.41,27.41-61.06L398.46,409Z" transform="translate(83.75 -172.1)"/></g><g class="cls-7"><path class="cls-2" d="M462.22,370.21l55.72-6.82,6.82,55.71-55.71,6.83-6.83-55.72ZM516.65,365l-52.78,6.47,6.46,52.78,52.79-6.46L516.65,365Z" transform="translate(83.75 -172.1)"/></g><g class="cls-8"><path class="cls-2" d="M486.34,277,527,303.3l-26.34,40.64L460,317.6,486.34,277Zm38.88,26.71-38.5-24.95-25,38.51,38.51,24.95,25-38.51Z" transform="translate(83.75 -172.1)"/></g><g class="cls-3"><path class="cls-2" d="M312.17,710.53l-114.67.23-.23-114.67,114.67-.23.23,114.67Zm-111.66-2.79,108.64-.22-.22-108.64-108.64.22.22,108.64Z" transform="translate(83.75 -172.1)"/></g><g class="cls-4"><path class="cls-2" d="M341,695.26l-63.32-71.55,71.55-63.32,63.32,71.55L341,695.26Zm-59.78-71.33,60,67.79,67.79-60-60-67.78-67.79,60Z" transform="translate(83.75 -172.1)"/></g><g class="cls-5"><path class="cls-2" d="M368.59,643.55l35.5-70.3,70.3,35.5-35.5,70.3-70.3-35.5ZM405,576l-33.63,66.6L438,676.26l33.62-66.6L405,576Z" transform="translate(83.75 -172.1)"/></g><g class="cls-5"><path class="cls-2" d="M432.49,533.67l70.45-5.4,5.39,70.44-70.44,5.4-5.4-70.44Zm68.73-3.41-66.73,5.12,5.11,66.74L506.34,597l-5.12-66.74Z" transform="translate(83.75 -172.1)"/></g><g class="cls-6"><path class="cls-2" d="M493.67,443.66l51.55,22.22L523,517.42,471.45,495.2l22.22-51.54Zm49.61,23-48.84-21-21.05,48.83,48.84,21.06,21-48.84Z" transform="translate(83.75 -172.1)"/></g><g class="cls-3"><g class="cls-9"><polygon class="cls-2" points="226.19 499.37 146.34 445.91 136.48 370.31 216.32 423.76 226.19 499.37"/><polygon class="cls-2" points="216.32 423.76 136.48 370.31 213.71 311.21 293.56 364.66 216.32 423.76"/><polygon class="cls-2" points="293.56 364.66 303.41 440.27 226.19 499.37 216.32 423.76 293.56 364.66"/></g></g><g class="cls-4"><g class="cls-9"><polygon class="cls-2" points="484.83 401.15 417.27 455.73 356.57 407.16 424.12 352.59 484.83 401.15"/><polygon class="cls-2" points="424.12 352.59 356.57 407.16 349.93 354.36 417.48 299.78 424.12 352.59"/><polygon class="cls-2" points="417.48 299.78 478.18 348.34 484.83 401.15 424.12 352.59 417.48 299.78"/></g></g><g class="cls-5"><g class="cls-9"><polygon class="cls-2" points="563.82 333.93 539.52 351.26 499.03 308.44 523.33 291.11 563.82 333.93"/><polygon class="cls-2" points="523.33 291.11 499.03 308.44 535.42 271.16 559.72 253.83 523.33 291.11"/><polygon class="cls-2" points="559.72 253.83 600.21 296.64 563.82 333.93 523.33 291.11 559.72 253.83"/></g></g><g class="cls-6"><g class="cls-9"><polygon class="cls-2" points="615.93 237.45 583.66 215.85 579.68 185.3 611.94 206.9 615.93 237.45"/><polygon class="cls-2" points="611.94 206.9 579.68 185.3 610.89 161.42 643.15 183.02 611.94 206.9"/><polygon class="cls-2" points="643.15 183.02 647.13 213.56 615.93 237.45 611.94 206.9 643.15 183.02"/></g></g><g class="cls-7"><g class="cls-9"><polygon class="cls-2" points="616.36 116.52 589.34 138.35 565.06 118.92 592.08 97.09 616.36 116.52"/><polygon class="cls-2" points="592.08 97.09 565.06 118.92 562.4 97.8 589.42 75.97 592.08 97.09"/><polygon class="cls-2" points="589.42 75.97 613.7 95.4 616.36 116.52 592.08 97.09 589.42 75.97"/></g></g><g class="cls-8"><path class="cls-2" d="M472.81,217,466.67,258l-41.07-6.14,6.13-41.07L472.81,217Zm-7.05,39.84,5.81-38.92-38.92-5.81L426.84,251l38.92,5.81Z" transform="translate(83.75 -172.1)"/></g><g class="cls-8"><path class="cls-2" d="M410.45,195.89l-23.79,16.68L370,188.77l23.79-16.67,16.68,23.79ZM386.84,211.5l22.55-15.8-15.8-22.54L371,189l15.8,22.54Z" transform="translate(83.75 -172.1)"/></g><g class="cls-8"><g class="cls-9"><polygon class="cls-2" points="529.96 53.36 518.62 61.45 499.73 41.47 511.07 33.38 529.96 53.36"/><polygon class="cls-2" points="511.07 33.38 499.73 41.47 516.71 24.07 528.05 15.99 511.07 33.38"/><polygon class="cls-2" points="528.05 15.99 546.94 35.97 529.96 53.36 511.07 33.38 528.05 15.99"/></g></g><g class="cls-5"><g class="cls-9"><polygon class="cls-2" points="465.09 319.15 432.83 297.55 428.85 267 461.11 288.6 465.09 319.15"/><polygon class="cls-2" points="461.11 288.6 428.85 267 460.05 243.12 492.32 264.72 461.11 288.6"/><polygon class="cls-2" points="492.32 264.72 496.3 295.27 465.09 319.15 461.11 288.6 492.32 264.72"/></g></g><g class="cls-3"><g class="cls-9"><polygon class="cls-2" points="357.4 532.55 325 555.66 271.01 498.57 303.42 475.47 357.4 532.55"/><polygon class="cls-2" points="303.42 475.47 271.01 498.57 319.53 448.86 351.94 425.76 303.42 475.47"/><polygon class="cls-2" points="351.94 425.76 405.92 482.84 357.4 532.55 303.42 475.47 351.94 425.76"/></g></g><g class="cls-7"><g class="cls-9"><polygon class="cls-2" points="534.21 104.94 518.08 94.14 516.09 78.87 532.22 89.67 534.21 104.94"/><polygon class="cls-2" points="532.22 89.67 516.09 78.87 531.69 66.93 547.82 77.73 532.22 89.67"/><polygon class="cls-2" points="547.82 77.73 549.81 93 534.21 104.94 532.22 89.67 547.82 77.73"/></g></g><g class="cls-6"><g class="cls-9"><polygon class="cls-2" points="552.99 228.98 536.78 240.53 509.79 211.99 526 200.44 552.99 228.98"/><polygon class="cls-2" points="526 200.44 509.79 211.99 534.05 187.14 550.25 175.58 526 200.44"/><polygon class="cls-2" points="550.25 175.58 577.25 204.13 552.99 228.98 526 200.44 550.25 175.58"/></g></g><g class="cls-3"><g class="cls-9"><polygon class="cls-2" points="198.98 290.4 131.43 344.98 70.72 296.41 138.28 241.84 198.98 290.4"/><polygon class="cls-2" points="138.28 241.84 70.72 296.41 64.08 243.6 131.63 189.03 138.28 241.84"/><polygon class="cls-2" points="131.63 189.03 192.33 237.59 198.98 290.4 138.28 241.84 131.63 189.03"/></g></g><g class="cls-3"><g class="cls-9"><polygon class="cls-2" points="129.58 601.43 80.97 636.09 0 550.46 48.61 515.8 129.58 601.43"/><polygon class="cls-2" points="48.61 515.8 0 550.46 72.78 475.89 121.38 441.23 48.61 515.8"/><polygon class="cls-2" points="121.38 441.23 202.36 526.86 129.58 601.43 48.61 515.8 121.38 441.23"/></g></g></g></svg>