<?xml version="1.0" standalone="no"?><!DOCTYPE svg PUBLIC "-//W3C//DTD SVG 1.1//EN" "http://www.w3.org/Graphics/SVG/1.1/DTD/svg11.dtd"><svg t="1539921912470" class="icon" style="" viewBox="0 0 1024 1024" version="1.1" xmlns="http://www.w3.org/2000/svg" p-id="6975" xmlns:xlink="http://www.w3.org/1999/xlink" width="200" height="200"><defs><style type="text/css"></style></defs><path d="M554.666667 298.666667H341.333333v384h469.333334V298.666667h-213.333334v85.333333h-42.666666V298.666667zM256 768h640v42.666667H213.333333V285.866667l-85.333333-85.333334 29.866667-29.866666L256 268.8V768zM298.666667 256h554.666666v469.333333H298.666667V256z m0 640c-25.6 0-42.666667-17.066667-42.666667-42.666667s17.066667-42.666667 42.666667-42.666666 42.666667 17.066667 42.666666 42.666666-17.066667 42.666667-42.666666 42.666667z m512 0c-25.6 0-42.666667-17.066667-42.666667-42.666667s17.066667-42.666667 42.666667-42.666666 42.666667 17.066667 42.666666 42.666666-17.066667 42.666667-42.666666 42.666667z" fill="#444444" p-id="6976"></path></svg>