<?xml version="1.0" encoding="UTF-8"?>
<svg width="64px" height="64px" viewBox="0 0 64 64" version="1.1" xmlns="http://www.w3.org/2000/svg" xmlns:xlink="http://www.w3.org/1999/xlink">
    <!-- Generator: Sketch 50 (54983) - http://www.bohemiancoding.com/sketch -->
    <title>Group 3</title>
    <desc>Created with Sketch.</desc>
    <defs>
        <linearGradient x1="2.21351115%" y1="175.533931%" x2="93.1001406%" y2="-100.108218%" id="linearGradient-1">
            <stop stop-color="#2051FF" offset="0%"></stop>
            <stop stop-color="#2DE7FF" offset="100%"></stop>
        </linearGradient>
    </defs>
    <g id="Page-1" stroke="none" stroke-width="1" fill="none" fill-rule="evenodd">
        <g id="New_landing-Copy-7" transform="translate(-1167.000000, -894.000000)" fill-rule="nonzero">
            <g id="Group-3" transform="translate(1168.000000, 895.000000)">
                <path d="M16,31 C24.2703571,31 31,37.7285714 31,46 C31,54.2714286 24.2703571,61 16,61 C7.72964286,61 1,54.2714286 1,46 C1,37.7285714 7.72964286,31 16,31 Z" id="Shape-Copy" stroke="#000000" stroke-width="2.5" fill="url(#linearGradient-1)"></path>
                <path d="M15.1666667,37 L13.5,37 L13.5,39.023 C11.7207292,39.5419722 10.6495833,41.5974375 11.1075,43.6139444 C11.48625,45.2817153 12.8138542,46.4465694 14.3333333,46.4444444 L17.6666667,46.4444444 C18.5871875,46.4444444 19.3333333,47.2900764 19.3333333,48.3333333 C19.3333333,49.3765903 18.5871875,50.2222222 17.6666667,50.2222222 L14.3333333,50.2222222 C13.4128125,50.2222222 12.6666667,49.3765903 12.6666667,48.3333333 L11,48.3333333 C11.0057292,50.0506875 12.0328125,51.5476319 13.5,51.977 L13.5,54 L15.1666667,54 L15.1666667,52.1111111 L16.8333333,52.1111111 L16.8333333,54 L18.5,54 L18.5,51.977 C20.2792708,51.4580278 21.3504167,49.4025625 20.8925,47.3860556 C20.51375,45.7182847 19.1861458,44.5534306 17.6666667,44.5555556 L14.3333333,44.5555556 C13.4128125,44.5555556 12.6666667,43.7099236 12.6666667,42.6666667 C12.6666667,41.6234097 13.4128125,40.7777778 14.3333333,40.7777778 L17.6666667,40.7777778 C18.5871875,40.7777778 19.3333333,41.6234097 19.3333333,42.6666667 L21,42.6666667 C20.9942708,40.9493125 19.9671875,39.4523681 18.5,39.023 L18.5,37 L16.8333333,37 L16.8333333,38.8888889 L15.1666667,38.8888889 L15.1666667,37 Z" id="Shape" fill="#000000"></path>
                <path d="M32,46 C32,37.1776 24.8224,30 16,30 C7.1776,30 0,37.1776 0,46 C0,54.8224 7.1776,62 16,62 C24.8224,62 32,54.8224 32,46 Z M16,59.8666667 C8.35381333,59.8666667 2.13333333,53.64608 2.13333333,46 C2.13333333,38.35392 8.35381333,32.1333333 16,32.1333333 C23.6461867,32.1333333 29.8666667,38.35392 29.8666667,46 C29.8666667,53.64608 23.6461867,59.8666667 16,59.8666667 Z" id="Shape-Copy-3" fill="#000000"></path>
                <g id="bitcoin-(3)" transform="translate(3.000000, 8.000000)">
                    <g id="Group" transform="translate(1.213483, 0.604938)" fill="url(#linearGradient-1)">
                        <path d="M6.68539326,12.3580247 C6.68539326,7.63298148 10.5337921,3.80246914 15.2808989,3.80246914 L20.0561798,3.80246914 L20.0561798,0 L15.2808989,0 C8.42383427,0 2.86516854,5.53283025 2.86516854,12.3580247 L0,12.3580247 L4.7752809,18.0617284 L9.5505618,12.3580247 L6.68539326,12.3580247 Z" id="Shape"></path>
                        <path d="M44.8876404,34.2222222 C44.8876404,38.9472654 41.0392416,42.7777778 36.2921348,42.7777778 L31.5168539,42.7777778 L31.5168539,46.5802469 L36.2921348,46.5802469 C43.1491994,46.5802469 48.7078652,41.0474167 48.7078652,34.2222222 L51.5730337,34.2222222 L46.7977528,28.5185185 L42.0224719,34.2222222 L44.8876404,34.2222222 Z" id="Shape"></path>
                    </g>
                    <path d="M5.10625449,20.2145668 C5.4507952,20.6305619 6.06618589,20.6873664 6.48075719,20.3416424 C6.52675288,20.3033239 6.56921045,20.2607205 6.60739786,20.2145668 L11.4875779,14.3382393 C11.8326066,13.9226115 11.7764845,13.3051074 11.3622792,12.9588938 C11.1867148,12.8122305 10.9655206,12.7319206 10.7370062,12.7320431 L8.84544841,12.7320431 C9.34261675,8.81706225 12.6600411,5.88159178 16.5932222,5.87632757 L21.4734022,5.87632757 C22.0124181,5.87632757 22.4494382,5.43780663 22.4494382,4.89693964 L22.4494382,0.979387929 C22.4494382,0.438520945 22.0124181,0 21.4734022,0 L16.5932222,0 C9.42875193,0.00918176183 3.48408265,5.56194405 2.96287943,12.7320431 L0.976646164,12.7320431 C0.437630282,12.7316758 0.000366152781,13.1699519 1.39280729e-07,13.7108189 C-0.000121865219,13.9401181 0.0799130869,14.1620719 0.226074478,14.3382393 L5.10625449,20.2145668 Z M3.90475417,14.6908189 C4.44377005,14.6908189 4.88079017,14.252298 4.88079017,13.711431 C4.88774443,7.22347567 10.1274717,1.965754 16.5932222,1.95877586 L20.4973662,1.95877586 L20.4973662,3.91755171 L16.5932222,3.91755171 C11.2051374,3.92355047 6.83884039,8.30484236 6.83286217,13.711431 C6.83286217,14.252298 7.26988229,14.6908189 7.80889818,14.6908189 L8.65316932,14.6908189 L5.85682617,18.0579546 L3.06048303,14.6908189 L3.90475417,14.6908189 Z" id="Shape" fill="#000000"></path>
                    <path d="M37.4067778,43.2913426 L32.5265978,43.2913426 C31.9875819,43.2913426 31.5505618,43.7173512 31.5505618,44.2427855 L31.5505618,48.0485571 C31.5505618,48.5739914 31.9875819,49 32.5265978,49 L37.4067778,49 C44.5712481,48.9910802 50.5159173,43.5967558 51.0371206,36.6312423 L53.0233538,36.6312423 C53.5623697,36.6315991 53.9996338,36.2058284 53.9999999,35.680394 C54.0001219,35.4576375 53.9200869,35.2420167 53.7739255,35.0708759 L48.8937455,29.3622185 C48.5195577,28.9580931 47.8801321,28.9263387 47.4655608,29.2910982 C47.4400619,29.313576 47.415661,29.3373621 47.3926021,29.3622185 L42.5124221,35.0708759 C42.1673934,35.4746445 42.2235155,36.0745293 42.6377208,36.4108643 C42.8132852,36.5533429 43.0344794,36.6313612 43.2629938,36.6312423 L45.1535756,36.6312423 C44.6572612,40.4346353 41.3398369,43.2865854 37.4067778,43.2913426 Z M47.1671378,35.6797994 C47.1671378,35.154365 46.7301177,34.7283565 46.1911018,34.7283565 L45.3468307,34.7283565 L48.1431738,31.4572958 L50.939517,34.7283565 L50.0952458,34.7283565 C49.5562299,34.7283565 49.1192098,35.154365 49.1192098,35.6797994 C49.1122556,41.9826329 43.8725283,47.0903352 37.4067778,47.0971142 L33.5026338,47.0971142 L33.5026338,45.1942284 L37.4067778,45.1942284 C42.7948626,45.1885197 47.1612816,40.932121 47.1671378,35.6797994 Z" id="Shape" fill="#000000"></path>
                </g>
                <g id="bitcoin-(4)" transform="translate(30.000000, 0.000000)">
                    <path d="M31.5362319,18.1429285 L31.5362319,13.8570715 L28.0346867,13.3566977 C27.7237611,11.9369405 27.1627156,10.5838151 26.3776672,9.36067166 L28.5013093,6.52932734 L25.4706727,3.49869065 L22.6393283,5.62233283 C21.4161849,4.83728436 20.0630595,4.27623888 18.6433023,3.96531334 L18.1429285,0.463768116 L13.8570715,0.463768116 L13.3566977,3.96531334 C11.9369405,4.27623888 10.5838151,4.83728436 9.36067166,5.62233283 L6.52932734,3.49869065 L3.49869065,6.52932734 L5.62233283,9.36067166 C4.83728436,10.5838151 4.27623888,11.9369405 3.96531334,13.3566977 L0.463768116,13.8570715 L0.463768116,18.1429285 L3.96531334,18.6433023 C4.27623888,20.0630595 4.83728436,21.4161849 5.62233283,22.6393283 L3.49869065,25.4706727 L6.52932734,28.5013093 L9.36067166,26.3776672 C10.5838151,27.1627156 11.9369405,27.7237611 13.3566977,28.0346867 L13.8570715,31.5362319 L18.1429285,31.5362319 L18.6433023,28.0346867 C20.0630595,27.7237611 21.4161849,27.1627156 22.6393283,26.3776672 L25.4706727,28.5013093 L28.5013093,25.4706727 L26.3776672,22.6393283 C27.1627156,21.4161849 27.7237611,20.0630595 28.0346867,18.6433023 L31.5362319,18.1429285 Z" id="Shape" fill="url(#linearGradient-1)"></path>
                    <path d="M31.5424,13.3386667 L28.4170667,12.8922667 C28.1122,11.6693333 27.6268667,10.4986 26.9770667,9.41866667 L28.872,6.89173334 C29.0313333,6.67953334 29.0104,6.38246668 28.8229333,6.19466668 L25.8053333,3.17760001 C25.6176667,2.98993335 25.3206,2.96880001 25.1082667,3.12800001 L22.5813333,5.02346668 C21.5015333,4.37333335 20.3308,3.88793335 19.1077333,3.58346668 L18.6613333,0.45813335 C18.6238667,0.195266684 18.3988,1.70888107e-08 18.1333333,1.70888107e-08 L13.8666667,1.70888107e-08 C13.6013333,-6.66495778e-05 13.3763333,0.19493335 13.3386667,0.457600017 L12.8922667,3.58293335 C11.6692,3.88740001 10.4984,4.37280001 9.41866667,5.02293335 L6.89173334,3.12800001 C6.67940001,2.96880001 6.38233334,2.98993335 6.19466668,3.17760001 L3.17760001,6.19466668 C2.99013335,6.38246668 2.96920001,6.67953334 3.12853335,6.89173334 L5.02346668,9.41866667 C4.37366668,10.4986 3.88833335,11.6693333 3.58346668,12.8922667 L0.45813335,13.3386667 C0.195266684,13.3761333 1.70888107e-08,13.6012 1.70888107e-08,13.8666667 L1.70888107e-08,18.1333333 C-6.66495778e-05,18.3986667 0.19493335,18.6236667 0.457600017,18.6613333 L3.58293335,19.1077333 C3.88780001,20.3306667 4.37313335,21.5014 5.02293335,22.5813333 L3.12853335,25.1082667 C2.96920001,25.3204667 2.99013335,25.6175333 3.17760001,25.8053333 L6.19466668,28.8224 C6.38233334,29.0100667 6.67940001,29.0312 6.89173334,28.872 L9.41866667,26.9765333 C10.4984667,27.6266667 11.6692,28.1120667 12.8922667,28.4165333 L13.3386667,31.5418667 C13.3761333,31.8047333 13.6012,32 13.8666667,32 L18.1333333,32 C18.3986667,32.0000666 18.6236667,31.8050666 18.6613333,31.5424 L19.1077333,28.4170667 C20.3308,28.1126 21.5016,27.6272 22.5813333,26.9770667 L25.1082667,28.8725333 C25.3206,29.0317333 25.6176667,29.0106 25.8053333,28.8229333 L28.8224,25.8058667 C29.0098667,25.6180667 29.0308,25.321 28.8714667,25.1088 L26.9765333,22.5813333 C27.6263333,21.5014 28.1116667,20.3306667 28.4165333,19.1077333 L31.5418667,18.6613333 C31.8047333,18.6238667 32,18.3988 32,18.1333333 L32,13.8666667 C32.0000666,13.6013333 31.8050666,13.3763333 31.5424,13.3386667 Z M30.9333333,17.6709333 L27.9050667,18.1029333 C27.6846667,18.1346 27.5071333,18.2998 27.4597333,18.5173333 C27.1646,19.8692667 26.6303333,21.1576 25.8821333,22.3216 C25.7622,22.5089333 25.7711333,22.7510667 25.9045333,22.9290667 L27.7408,25.3781333 L25.3781333,27.7413333 L22.9296,25.9045333 C22.7516,25.7711333 22.5094667,25.7622 22.3221333,25.8821333 C21.1579333,26.6304 19.8694667,27.1646667 18.5173333,27.4597333 C18.3,27.5073333 18.135,27.6848 18.1034667,27.9050667 L17.6709333,30.9333333 L14.3290667,30.9333333 L13.8965333,27.9050667 C13.865,27.6848 13.7,27.5073333 13.4826667,27.4597333 C12.1305333,27.1646667 10.8420667,26.6304 9.67786667,25.8821333 C9.49053334,25.7622 9.24840001,25.7711333 9.07040001,25.9045333 L6.62186668,27.7413333 L4.25920001,25.3781333 L6.09546668,22.9290667 C6.22886668,22.7510667 6.23780001,22.5089333 6.11786668,22.3216 C5.36966668,21.1576 4.83540001,19.8692667 4.54026668,18.5173333 C4.49286668,18.2998 4.31533335,18.1346 4.09493335,18.1029333 L1.06666668,17.6709333 L1.06666668,14.3290667 L4.09493335,13.8970667 C4.31533335,13.8654 4.49286668,13.7002 4.54026668,13.4826667 C4.83540001,12.1307333 5.36966668,10.8424 6.11786668,9.67840001 C6.23780001,9.49106667 6.22886668,9.24893334 6.09546668,9.07093334 L4.25920001,6.62186668 L6.62186668,4.25866668 L9.07040001,6.09546668 C9.24840001,6.22886668 9.49053334,6.23780001 9.67786667,6.11786668 C10.8420667,5.36960001 12.1305333,4.83533335 13.4826667,4.54026668 C13.7,4.49266668 13.865,4.31520001 13.8965333,4.09493335 L14.3290667,1.06666668 L17.6709333,1.06666668 L18.1034667,4.09493335 C18.135,4.31520001 18.3,4.49266668 18.5173333,4.54026668 C19.8694667,4.83533335 21.1579333,5.36960001 22.3221333,6.11786668 C22.5094667,6.23780001 22.7516,6.22886668 22.9296,6.09546668 L25.3781333,4.25866668 L27.7408,6.62186668 L25.9045333,9.07093334 C25.7711333,9.24893334 25.7622,9.49106667 25.8821333,9.67840001 C26.6303333,10.8424 27.1646,12.1307333 27.4597333,13.4826667 C27.5071333,13.7002 27.6846667,13.8654 27.9050667,13.8970667 L30.9333333,14.3290667 L30.9333333,17.6709333 Z" id="Shape" stroke="#000000" stroke-width="1.3" fill="#000000"></path>
                </g>
                <g id="Group-6-Copy" transform="translate(41.000000, 8.000000)" fill="#000000">
                    <path d="M5.83669878,14.2222222 L5.83669878,16 L7.50135441,16 L7.50135441,14.1 C9.2804551,13.6111111 10.3520772,11.6888889 9.89429687,9.78888889 C9.7278313,9.1 9.37409198,8.47777778 8.8642912,8 C10.2376321,6.71111111 10.3832895,4.46666667 9.16601003,3 C8.72903793,2.46666667 8.14640846,2.07777778 7.49095031,1.9 L7.49095031,0 L5.82629468,0 L5.82629468,1.77777778 L4.16163906,1.77777778 L4.16163906,0 L2.49698344,0 L2.49698344,1.77777778 L0.832327812,1.77777778 C0.374547515,1.77777778 0,2.17777778 0,2.66666667 L0,13.3333333 C0,13.8222222 0.374547515,14.2222222 0.832327812,14.2222222 L2.49698344,14.2222222 L2.49698344,16 L4.16163906,16 L4.16163906,14.2222222 L5.83669878,14.2222222 Z M1.67505972,3.55555556 L6.66902659,3.55555556 C7.58458719,3.55555556 8.33368222,4.35555556 8.33368222,5.33333333 C8.33368222,6.31111111 7.58458719,7.11111111 6.66902659,7.11111111 L1.67505972,7.11111111 L1.67505972,3.55555556 Z M1.67505972,8.88888889 L6.66902659,8.88888889 C7.58458719,8.88888889 8.33368222,9.68888889 8.33368222,10.6666667 C8.33368222,11.6444444 7.58458719,12.4444444 6.66902659,12.4444444 L1.67505972,12.4444444 L1.67505972,8.88888889 Z" id="Shape"></path>
                </g>
            </g>
        </g>
    </g>
</svg>