<?xml version="1.0" encoding="UTF-8"?>
<svg width="66px" height="58px" viewBox="0 0 66 58" version="1.1" xmlns="http://www.w3.org/2000/svg" xmlns:xlink="http://www.w3.org/1999/xlink">
    <!-- Generator: Sketch 50 (54983) - http://www.bohemiancoding.com/sketch -->
    <title>group</title>
    <desc>Created with Sketch.</desc>
    <defs>
        <linearGradient x1="2.21351115%" y1="175.533931%" x2="93.1001406%" y2="-100.108218%" id="linearGradient-1">
            <stop stop-color="#2051FF" offset="0%"></stop>
            <stop stop-color="#2DE7FF" offset="100%"></stop>
        </linearGradient>
    </defs>
    <g id="Page-1" stroke="none" stroke-width="1" fill="none" fill-rule="evenodd">
        <g id="New_landing-Copy-7" transform="translate(-682.000000, -1187.000000)" fill-rule="nonzero">
            <g id="group" transform="translate(682.000000, 1187.000000)">
                <g id="Group" transform="translate(7.000000, 8.000000)" fill="url(#linearGradient-1)">
                    <path d="M54.9193075,19.7388976 C54.9074296,14.1746325 50.2282981,9.67396325 44.4682746,9.6861811 C38.7082512,9.69839895 34.0484859,14.2190026 34.0603638,19.7832677 L34.0810211,29.4182625 L39.2987911,30.8139265 L39.3376526,48.928622 L49.9353521,48.9061155 L49.9026878,33.6502677 L50.3961385,33.7822205 C52.9109038,33.7768189 54.9452582,31.8031864 54.9400939,29.3738924 L54.9193075,19.7388976 Z" id="Shape"></path>
                    <ellipse id="Oval" cx="44.1420188" cy="4.84842782" rx="4.85730047" ry="4.83852493"></ellipse>
                    <path d="M20.8749531,19.7612756 C20.8749531,14.1970105 16.2055047,9.68630971 10.4454812,9.68630971 C4.68545775,9.68630971 0.0160093897,14.1970105 0.0160093897,19.7612756 L0.0160093897,29.396399 C0.0160093897,31.8256929 2.05462441,33.7950814 4.56938967,33.7950814 L5.23068075,33.6167008 L5.23068075,48.9179475 L15.8283803,48.9179475 L15.8283803,30.7577244 L20.8749531,29.396399 L20.8749531,19.7612756 Z" id="Shape"></path>
                    <ellipse id="Oval" cx="10.1298122" cy="4.84727034" rx="4.85730047" ry="4.83852493"></ellipse>
                </g>
                <g id="Group" transform="translate(22.000000, 1.000000)" fill="url(#linearGradient-1)">
                    <path d="M11.9910486,11.0721852 C5.42724324,11.0721852 0.106118919,16.2283333 0.106118919,22.5887407 L0.106118919,33.602463 C0.106118919,36.3793889 2.42931892,38.6304074 5.29491892,38.6304074 L6.04851892,38.6304074 L6.04851892,55.9171667 L18.1250595,55.9171667 L18.1250595,38.630537 L18.6870486,38.630537 C21.5527784,38.630537 23.8758486,36.3793889 23.8758486,33.6025926 L23.8758486,22.5888704 C23.8758486,16.2282037 18.5548541,11.0721852 11.9910486,11.0721852 Z" id="Shape"></path>
                    <ellipse id="Oval" cx="11.6315676" cy="5.54153704" rx="5.53504865" ry="5.53077778"></ellipse>
                </g>
                <path d="M64.7109375,55.4295395 L58.1044922,55.4295395 L58.0454531,27.8983649 C58.0439062,27.1894319 57.4671797,26.6158336 56.7563906,26.6158336 C56.7554883,26.6158336 56.754457,26.6158336 56.7536836,26.6158336 C56.0418633,26.6173759 55.4659102,27.1940587 55.4673281,27.9037628 L55.5262383,55.4294109 L47.5234805,55.4294109 L47.4644414,25.3505244 C47.4643125,25.2734106 47.4561914,25.1982246 47.4429141,25.124838 L47.4429141,23.6707284 C47.4429141,22.3966797 47.2498125,21.148464 46.8694102,19.9462596 C48.2346562,19.1943999 49.769543,18.7980349 51.3625664,18.7945648 C51.3696562,18.7945648 51.3762305,18.7945648 51.3833203,18.7945648 C53.8199062,18.7945648 56.1103125,19.7077209 57.8337891,21.3670817 C59.5515937,23.020916 60.5003437,25.2195594 60.5053711,27.5599637 L60.5259961,33.2999306 C60.5285742,34.008221 61.1051719,34.5805341 61.8149297,34.5805341 C61.8166055,34.5805341 61.8180234,34.5805341 61.8196992,34.5805341 C62.5315195,34.5779636 63.1065703,34.0005097 63.1041211,33.290677 L63.0834961,27.5526379 C63.0770508,24.5125543 61.8487031,21.659086 59.6246836,19.5180209 C58.4181211,18.3564298 56.9958984,17.4828588 55.4473477,16.9273823 C56.5636758,15.7765871 57.1767539,14.266056 57.1732734,12.661703 C57.1659258,9.29118664 54.4135195,6.55428879 51.0346289,6.55428879 C51.0302461,6.55428879 51.0257344,6.55428879 51.0213516,6.55428879 C47.6365312,6.5616146 44.8886367,9.31303556 44.8957266,12.6877932 C44.899207,14.3227346 45.5410312,15.8583277 46.7029922,17.0119504 C46.7411484,17.0498647 46.7808516,17.0855941 46.8197812,17.1223517 C46.4875898,17.2592287 46.1615859,17.4115285 45.8422852,17.578737 C44.2692422,14.7752642 41.7011719,12.6910063 38.6631094,11.6695053 C39.9633867,10.4356842 40.7763984,8.69573946 40.7763984,6.76892225 C40.7763984,3.03648503 37.7308594,0 33.9874219,0 C30.2439844,0 27.1984453,3.03648503 27.1984453,6.76892225 C27.1984453,8.79444515 28.0965352,10.6135601 29.5151484,11.8550925 C26.7141445,12.9272316 24.3511641,14.9189529 22.8659062,17.545578 C22.4146055,17.3126943 21.9497695,17.1096279 21.4738477,16.9372785 C22.5495703,15.8342939 23.2139531,14.330446 23.2139531,12.6740412 C23.2139531,9.29915507 20.4601289,6.55351765 17.0751797,6.55351765 C13.6902305,6.55351765 10.9364062,9.29902655 10.9364062,12.6739127 C10.9364062,14.419641 11.6743945,15.9957189 12.8542734,17.1116843 C8.64780469,18.8341499 5.68785937,22.8767132 5.68785937,27.5774429 L5.68785937,33.3174098 C5.68785937,34.0272424 6.26510156,34.60264 6.97692187,34.60264 C7.68874219,34.60264 8.26598437,34.0272424 8.26598437,33.3174098 L8.26598437,27.5774429 C8.26598437,22.7344382 12.3590156,18.7944363 17.3900977,18.7944363 C18.961207,18.7944363 20.4784336,19.1773064 21.8320781,19.9073172 C21.4434258,21.1214742 21.2460703,22.3827992 21.2460703,23.6705999 L21.2460703,33.709405 L21.2460703,34.5903018 L21.2460703,55.4292824 L13.4725078,55.4292824 L13.4725078,27.9125024 C13.4725078,27.2026697 12.8952656,26.6272721 12.1834453,26.6272721 C11.471625,26.6272721 10.8943828,27.2026697 10.8943828,27.9125024 L10.8943828,55.4295395 L1.2890625,55.4295395 C0.577242187,55.4295395 0,56.0049371 0,56.7147697 C0,57.4246024 0.577242187,58 1.2890625,58 L12.1835742,58 C23.6783476,58 32.2994276,58 38.0468142,58 C43.972175,58 52.8602161,58 64.7109375,58 C65.4227578,58 66,57.4246024 66,56.7147697 C66,56.0049371 65.4227578,55.4295395 64.7109375,55.4295395 Z M41.7288867,40.8192988 C42.9184336,40.6880768 44.0103984,40.2406882 44.9142891,39.5655567 L44.9454844,55.4294109 L41.7288867,55.4294109 L41.7288867,40.8192988 Z M51.0268945,9.1246208 C51.0296016,9.1246208 51.0319219,9.1246208 51.0345,9.1246208 C52.9942617,9.1246208 54.5908945,10.7122658 54.5951484,12.667101 C54.5972109,13.6153439 54.228668,14.5075507 53.5577109,15.1795976 C52.886625,15.851516 51.9931758,16.2226905 51.0421055,16.2247469 C51.0393984,16.2247469 51.0369492,16.2247469 51.0342422,16.2247469 C50.0861367,16.2247469 49.1942344,15.8575566 48.5221172,15.1903936 C47.8480664,14.5213027 47.4759141,13.6306381 47.4738516,12.6823952 C47.4697266,10.7249895 49.0635234,9.12886206 51.0268945,9.1246208 Z M33.9874219,2.57046053 C36.3092812,2.57046053 38.1982734,4.45383697 38.1982734,6.76892225 C38.1982734,9.08400753 36.3092812,10.967384 33.9874219,10.967384 C31.6655625,10.967384 29.7765703,9.08400753 29.7765703,6.76892225 C29.7765703,4.45383697 31.6655625,2.57046053 33.9874219,2.57046053 Z M34.3446211,13.537716 C38.6676211,13.537716 42.5014219,16.0349184 44.1118477,19.8994773 C44.6116172,21.0989827 44.8650469,22.367762 44.8650469,23.6705999 L44.8650469,34.5903018 C44.8650469,36.391295 43.5128203,37.8950144 41.7290156,38.2230052 L41.7290156,24.0506425 C41.7290156,23.3408098 41.1517734,22.7654122 40.4399531,22.7654122 C39.7281328,22.7654122 39.1508906,23.3408098 39.1508906,24.0506425 L39.1508906,55.4295395 L35.4432891,55.4295395 L35.4432891,39.9111551 C35.4432891,39.2013225 34.8660469,38.6259249 34.1542266,38.6259249 C33.4424062,38.6259249 32.8651641,39.2013225 32.8651641,39.9111551 L32.8651641,55.4294109 L29.7291328,55.4294109 L29.7291328,24.050514 C29.7291328,23.3406813 29.1518906,22.7652837 28.4400703,22.7652837 C27.72825,22.7652837 27.1510078,23.3406813 27.1510078,24.050514 L27.1510078,38.2534651 C25.2737461,38.0011744 23.8243242,36.4551709 23.8243242,34.5905589 L23.8243242,33.7096621 L23.8243242,23.670857 C23.8243242,22.3554238 24.0829102,21.0748203 24.5924766,19.8646475 C24.5935078,19.8622056 24.5944102,19.8597637 24.5954414,19.8571932 C26.2163086,16.0182104 30.0426328,13.537716 34.3446211,13.537716 Z M17.0751797,9.12397819 C19.0384219,9.12397819 20.6358281,10.716507 20.6358281,12.6740412 C20.6358281,14.6315754 19.0384219,16.2241043 17.0751797,16.2241043 C15.1119375,16.2241043 13.5145312,14.6315754 13.5145312,12.6740412 C13.5145312,10.7166355 15.1118086,9.12397819 17.0751797,9.12397819 Z M23.8241953,39.6033425 C24.7667578,40.2932541 25.9095117,40.736273 27.1508789,40.837035 L27.1508789,55.4294109 L23.8241953,55.4294109 L23.8241953,39.6033425 Z" id="Shape" fill="#000000"></path>
                <circle id="Oval" fill="#000000" cx="61" cy="38" r="1"></circle>
                <circle id="Oval" fill="#000000" cx="7" cy="38" r="1"></circle>
            </g>
        </g>
    </g>
</svg>