<?xml version="1.0" encoding="UTF-8"?>
<svg width="65px" height="65px" viewBox="0 0 65 65" version="1.1" xmlns="http://www.w3.org/2000/svg" xmlns:xlink="http://www.w3.org/1999/xlink">
    <!-- Generator: Sketch 50 (54983) - http://www.bohemiancoding.com/sketch -->
    <title>plug</title>
    <desc>Created with Sketch.</desc>
    <defs>
        <linearGradient x1="2.21351115%" y1="175.533931%" x2="93.1001406%" y2="-100.108218%" id="linearGradient-1">
            <stop stop-color="#2051FF" offset="0%"></stop>
            <stop stop-color="#2DE7FF" offset="100%"></stop>
        </linearGradient>
    </defs>
    <g id="Page-1" stroke="none" stroke-width="1" fill="none" fill-rule="evenodd">
        <g id="New_landing-Copy-7" transform="translate(-1161.000000, -1180.000000)" fill-rule="nonzero">
            <g id="plug" transform="translate(1161.000000, 1180.000000)">
                <circle id="Oval" fill="url(#linearGradient-1)" cx="10" cy="55" r="4"></circle>
                <path d="M36,44 L36,46.625 C36,47.384375 35.3284091,48 34.5,48 L31.5,48 C30.6715909,48 30,47.384375 30,46.625 L30,44 L36,44 Z" id="Shape" fill="#D8D8E4"></path>
                <path d="M42.5,27 L22.5,27 C20.567,27 19,25.433 19,23.5 C19,21.567 20.567,20 22.5,20 L42.5,20 C44.433,20 46,21.567 46,23.5 C46,25.433 44.433,27 42.5,27 Z" id="Shape" fill="url(#linearGradient-1)"></path>
                <path d="M42,27 L42,34 C42,39.522875 37.522875,44 32,44 C26.477125,44 22,39.522875 22,34 L22,27" id="Shape" fill="url(#linearGradient-1)"></path>
                <g id="Group" transform="translate(23.000000, 8.000000)" fill="url(#linearGradient-1)">
                    <path d="M2.51668212,0.0521290323 C1.12678808,0.0521290323 0.000125827815,1.20748387 0.000125827815,2.63277419 L0.000125827815,11.9230968 L5.03323841,11.9230968 L5.03323841,2.63277419 C5.03323841,1.20748387 3.90657616,0.0521290323 2.51668212,0.0521290323 Z" id="Shape"></path>
                    <path d="M16.3577417,0.0521290323 C14.9678477,0.0521290323 13.8411854,1.20748387 13.8411854,2.63277419 L13.8411854,11.9230968 L18.874298,11.9230968 L18.874298,2.63277419 C18.874298,1.20748387 17.7476358,0.0521290323 16.3577417,0.0521290323 Z" id="Shape"></path>
                </g>
                <path d="M10.5533439,49.2045686 C9.6935469,49.2045686 8.86474636,49.4020841 8.11761689,49.7726486 C0.775838355,39.4669282 0.750372417,25.3445717 8.17973835,15.0138751 C8.59182353,14.440698 8.45703412,13.6450292 7.87852003,13.2366181 C7.30000594,12.8282071 6.49692857,12.961753 6.08471478,13.5349302 C1.98662796,19.2334428 -0.115726713,25.9627314 0.00491495353,32.9951744 C0.119768907,39.6876359 2.24064427,46.0361655 6.14812239,51.4255346 C4.59547185,53.5357645 4.7792639,56.5178659 6.70014162,58.4212779 C7.76250853,59.4737168 9.15786188,60 10.5533439,60 C11.9488258,60 13.3441792,59.4737168 14.4065461,58.4212779 C16.5311513,56.3161452 16.5311513,52.8910994 14.4065461,50.7859667 C13.3772334,49.7661497 12.0087608,49.2045686 10.5533439,49.2045686 Z M12.5875321,56.6190448 C11.4656161,57.730356 9.64068578,57.730356 8.51902696,56.6190448 C7.39723952,55.5076061 7.39723952,53.6992563 8.51902696,52.587945 C9.06242892,52.0495561 9.78486415,51.753028 10.5532152,51.753028 C11.3215663,51.753028 12.0441302,52.0495561 12.5874035,52.587945 C13.7093196,53.6993837 13.7093196,55.5077335 12.5875321,56.6190448 Z" id="Shape" fill="#000000"></path>
                <path d="M49.0170767,57.2355044 C45.4416977,59.8593623 41.4224603,61.5976348 37.0709234,62.4020542 C36.0626435,62.58852 35.034353,62.3140292 34.2498157,61.649205 C33.4709064,60.9892077 33.0242966,60.0195348 33.0242966,58.9890193 L33.0242966,49.6786869 L33.133479,49.6786869 C34.5816151,49.6786869 35.7598593,48.4821558 35.7598593,47.011261 L35.7598593,44.8667776 C39.9962108,43.2244054 43.0136716,39.0548377 43.0136716,34.1823398 L43.0136716,28.1685647 C45.0292309,27.6094214 46.515512,25.7344751 46.515512,23.5126363 C46.515512,21.0666068 44.7141903,19.0410144 42.388343,18.7289256 L42.388343,10.8106084 C42.388343,8.70943892 40.7052084,7 38.6363711,7 C36.5675338,7 34.8843992,8.70943892 34.8843992,10.8106084 L34.8843992,18.6858657 L28.6311128,18.6858657 L28.6311128,10.8106084 C28.6311128,8.70943892 26.9479782,7 24.8791409,7 C22.8103036,7 21.1271691,8.70943892 21.1271691,10.8106084 L21.1271691,18.7289256 C18.8013217,19.0410144 17,21.0664798 17,23.5126363 C17,25.7344751 18.4862811,27.6094214 20.5018404,28.1685647 L20.5018404,34.1823398 C20.5018404,39.0548377 23.5193013,43.2244054 27.7556527,44.8667776 L27.7556527,47.011388 C27.7556527,48.4822829 28.9338969,49.6788139 30.382033,49.6788139 L30.5229821,49.6788139 L30.5229821,58.9891463 C30.5229821,60.7753055 31.297264,62.4557838 32.6472235,63.5998555 C33.7246647,64.5128772 35.0673704,65 36.4465953,65 C36.8029075,65 37.161596,64.9674828 37.5187837,64.9014323 C42.2402651,64.0285489 46.6016823,62.1421707 50.4817215,59.2946301 C51.0416408,58.8837195 51.1674569,58.0897157 50.7629943,57.521173 C50.3589069,56.9526302 49.5772461,56.8245938 49.0170767,57.2355044 Z M37.3858389,10.8106084 C37.3858389,10.1102186 37.9468837,9.54040559 38.6364962,9.54040559 C39.3261086,9.54040559 39.8871535,10.1102186 39.8871535,10.8106084 L39.8871535,18.6858657 L37.3858389,18.6858657 L37.3858389,10.8106084 Z M23.6286087,10.8106084 C23.6286087,10.1102186 24.1896536,9.54040559 24.879266,9.54040559 C25.5688784,9.54040559 26.1299233,10.1102186 26.1299233,10.8106084 L26.1299233,18.6858657 L23.6286087,18.6858657 L23.6286087,10.8106084 Z M19.5014396,23.5126363 C19.5014396,22.2519601 20.5113454,21.2262713 21.7526228,21.2262713 L41.7631394,21.2262713 C43.0044168,21.2262713 44.0143225,22.2519601 44.0143225,23.5126363 C44.0143225,24.7733126 43.0044168,25.7990014 41.7631394,25.7990014 L21.7526228,25.7990014 C20.5113454,25.7990014 19.5014396,24.7733126 19.5014396,23.5126363 Z M23.0032801,34.1823398 L23.0032801,28.3394069 L40.5124821,28.3394069 L40.5124821,34.1823398 C40.5124821,39.0850685 36.5851681,43.0737594 31.7578811,43.0737594 C26.9305941,43.0737594 23.0032801,39.0850685 23.0032801,34.1823398 Z M30.2570923,47.011388 L30.2570923,45.5122947 C30.7482254,45.5791074 31.2491137,45.614165 31.7578811,45.614165 C32.2666485,45.614165 32.7675367,45.5791074 33.2586698,45.5122947 L33.2586698,47.011388 C33.2586698,47.0813762 33.2026404,47.1384083 33.1336041,47.1384083 L31.805281,47.1384083 C31.7947755,47.1381543 31.784395,47.136757 31.7738895,47.136757 C31.763384,47.136757 31.7530035,47.1381543 31.742498,47.1384083 L30.3824082,47.1384083 C30.3131218,47.1384083 30.2570923,47.0813762 30.2570923,47.011388 Z" id="Shape" fill="#000000"></path>
                <path d="M53.437041,54.4440207 C53.4255034,54.4557083 53.4139658,54.4676955 53.4030275,54.4792333 C52.8382837,55.0842892 52.8710985,56.03233 53.4759992,56.5970789 C53.7648891,56.866642 54.1318452,57 54.4980521,57 C54.8850866,57 55.2712222,56.8509087 55.562959,56.5560226 C55.5744966,56.544335 55.5860342,56.5323478 55.5969725,56.5208101 C56.1617163,55.9157541 56.1289015,54.9677133 55.5240008,54.4029644 C54.9301882,53.8485546 54.0049314,53.8699818 53.437041,54.4440207 Z" id="Shape" fill="#000000"></path>
                <path d="M64.9136615,29.9944148 C64.346474,22.2381122 60.9870182,14.9341275 55.4545532,9.42813831 C50.0166831,4.01616033 42.7526095,0.703469798 35.0005381,0.100505893 C27.3429344,-0.495362828 19.7217427,1.57262979 13.5383171,5.92299092 C12.9641273,6.32690959 12.8277732,7.11764246 13.2336528,7.68893143 C13.6394051,8.26022041 14.4341041,8.3961692 15.0081666,7.99212383 C26.8322747,-0.326598818 43.4463479,1.06088967 53.6540672,11.2199256 C64.2029902,21.71839 65.4785573,38.0214747 56.6868332,49.9849679 C56.271787,50.5497952 56.3954096,51.3424285 56.9629791,51.7555963 C57.1895994,51.9205593 57.4527591,52 57.7136272,52 C58.1058841,52 58.4929211,51.8202131 58.7423308,51.4807846 C63.2833954,45.3011331 65.4752471,37.6705166 64.9136615,29.9944148 Z" id="Shape" fill="#000000"></path>
                <path d="M10.4878743,12 C10.8706908,12 11.2536562,11.8530179 11.5446742,11.5596488 L11.5689257,11.5349534 C12.1473908,10.951488 12.1430762,10.0094933 11.5595524,9.43108603 C10.9758798,8.85282748 10.033791,8.85669543 9.45532583,9.44045837 L9.43107433,9.46515374 C8.85260916,10.0486191 8.85692384,10.9906138 9.44044761,11.5690211 C9.73057288,11.8564395 10.1092236,12 10.4878743,12 Z" id="Shape" fill="#000000"></path>
                <path d="M32.2395493,39.3755786 L34.8370144,34.8776278 C35.0570981,34.4966249 35.0540867,34.0297241 34.8292349,33.6514286 C34.6043831,33.2731331 34.1915692,33.0405441 33.7451279,33.0405441 L32.8484811,33.0405441 L34.4999876,30.9944995 C34.9301171,30.4616369 34.8382691,29.687571 34.2949609,29.2658343 C33.7516526,28.8438514 32.9624127,28.9340565 32.5322832,29.4667961 L29.2709281,33.5073219 C28.9722968,33.8773722 28.9157074,34.3822994 29.1252512,34.8071127 C29.334795,35.231926 29.7735823,35.5018031 30.2547803,35.5018031 L31.5923474,35.5018031 L30.0557764,38.1626702 C29.7142325,38.7541107 29.9262858,39.5050408 30.5290694,39.8398951 C30.7245599,39.9484366 30.9367388,40 31.1464081,40 C31.5839406,39.9998769 32.0086746,39.7752871 32.2395493,39.3755786 Z" id="Shape" fill="#000000"></path>
            </g>
        </g>
    </g>
</svg>