<?xml version="1.0" encoding="UTF-8"?>
<svg width="74px" height="57px" viewBox="0 0 74 57" version="1.1" xmlns="http://www.w3.org/2000/svg" xmlns:xlink="http://www.w3.org/1999/xlink">
    <!-- Generator: Sketch 50 (54983) - http://www.bohemiancoding.com/sketch -->
    <title>Group 6</title>
    <desc>Created with Sketch.</desc>
    <defs>
        <linearGradient x1="2.21351115%" y1="175.533931%" x2="93.1001406%" y2="-100.108218%" id="linearGradient-1">
            <stop stop-color="#2051FF" offset="0%"></stop>
            <stop stop-color="#2DE7FF" offset="100%"></stop>
        </linearGradient>
    </defs>
    <g id="Page-1" stroke="none" stroke-width="1" fill="none" fill-rule="evenodd">
        <g id="New_landing-Copy-7" transform="translate(-687.000000, -893.000000)">
            <g id="Group-6" transform="translate(688.000000, 895.000000)">
                <polygon id="Path-3" fill="url(#linearGradient-1)" points="12.4239668 1.13686838e-13 53.5902683 1.13686838e-13 56 53 11 53 11 1.13686838e-13"></polygon>
                <g id="Page-1" transform="translate(11.000000, 0.000000)" stroke="#000000" stroke-linecap="round" stroke-linejoin="round" stroke-width="2.5">
                    <polygon id="Stroke-1" points="0.645764706 53.2637674 43.8563529 53.2637674 43.8563529 0.114581395 0.645764706 0.114581395"></polygon>
                    <path d="M36.8554353,32.075593 C36.8554353,40.0480349 30.3175529,46.5098953 22.2526118,46.5098953 C14.1850824,46.5098953 7.64849412,40.0480349 7.64849412,32.075593 C7.64849412,24.1044302 14.1850824,17.6412907 22.2526118,17.6412907 C30.3175529,17.6412907 36.8554353,24.1044302 36.8554353,32.075593 Z" id="Stroke-5"></path>
                    <path d="M10.1907882,8.18180233 L14.4264353,8.18180233" id="Stroke-6"></path>
                    <path d="M20.1342706,8.18180233 L24.3686235,8.18180233" id="Stroke-7"></path>
                    <path d="M30.0765882,8.18180233 L34.3122353,8.18180233" id="Stroke-8"></path>
                    <path d="M22.2524824,17.6418023 L22.2524824,46.510407" id="Stroke-9"></path>
                    <path d="M36.8554353,32.075593 L7.64849412,32.075593" id="Stroke-10"></path>
                    <path d="M32.5787647,21.8692558 L11.9246471,42.2819302" id="Stroke-11"></path>
                    <path d="M32.5787647,42.2825698 L11.9246471,21.8698953" id="Stroke-12"></path>
                </g>
                <path d="M1.2184224,53 L71.3898305,53" id="Line-2" stroke="#000000" stroke-width="3" stroke-linecap="round"></path>
            </g>
        </g>
    </g>
</svg>